<?xml version="1.0" encoding="UTF-8"?><svg xmlns="http://www.w3.org/2000/svg" xmlns:xlink="http://www.w3.org/1999/xlink" viewBox="0 0 85.25 73.63"><defs><style>.g{fill:url(#d);}.h{fill:#45b6cf;}</style><linearGradient id="d" x1="-254.14" y1="480.22" x2="-253.21" y2="479.89" gradientTransform="translate(16010.28 31386.49) scale(63 -65.31)" gradientUnits="userSpaceOnUse"><stop offset="0" stop-color="#44b6cf"/><stop offset=".39" stop-color="#2d8196"/><stop offset=".8" stop-color="#195062"/><stop offset="1" stop-color="#113d4e"/></linearGradient></defs><g id="a"/><g id="b"><g id="c"><path id="e" class="g" d="M52.43,56.88c.08,.24-.08,.4-.16,.56-1.73,3.63-3.45,7.27-5.2,10.89-1.59,3.48-5.2,5.59-9.02,5.26-2.79-.17-5.34-1.64-6.88-3.97-1.59-2.26-3.18-4.52-4.75-6.8C18.18,50.87,9.95,38.9,1.72,26.94-1.24,22.81-.29,17.08,3.84,14.12c1.07-.77,2.29-1.29,3.58-1.55,.78-.14,1.59,0,2.29,.38,2.64,1.34,5.29,2.68,7.95,3.97,3.13,1.59,6.37,2.93,9.71,4.01,4.59,1.57,9.61,1.3,14-.77,2.7-1.22,5.3-2.66,7.77-4.29,3.42-2.17,6.76-4.46,10.08-6.78,1.12-.71,2.48-.95,3.78-.67,.04,.21-.09,.27-.18,.35-6.06,5.36-11.52,11.35-16.3,17.88-1.51,2.01-2.99,4.06-4.42,6.13-.32,.46-.33,.47-.79,.18-3.74-2.33-7.9-3.91-12.25-4.63-1.36-.29-2.76-.32-4.12-.07-2.81,.41-4.75,3.02-4.34,5.83,.09,.64,.31,1.26,.64,1.83,.42,.82,.97,1.56,1.63,2.2,2.19,2.25,4.11,4.75,5.73,7.44,1.98,3.07,3.77,6.26,5.7,9.36,.61,1.04,1.36,2.01,2.22,2.86,4.34,4.13,11.2,3.97,15.33-.36,.19-.19,.39-.36,.59-.55Z"/><path id="f" class="h" d="M85.25,0c-.3,.47-.65,.91-1.04,1.31-5.53,6.35-10.62,13.08-15.22,20.13-3.08,4.77-6.02,9.63-8.89,14.53-3.33,5.69-6.61,11.4-10.01,17.05-.82,1.54-2.19,2.72-3.83,3.32-2.38,.89-5.05,.33-6.87-1.45-.66-.64-1.22-1.36-1.67-2.16-1.71-2.83-3.41-5.67-5.15-8.49-1.5-2.47-3.17-4.83-5-7.07-.52-.63-1.13-1.17-1.69-1.76-.42-.42-.78-.9-1.06-1.42-.35-.46-.26-1.12,.2-1.47,.14-.11,.31-.18,.49-.2,.52-.17,1.07-.23,1.61-.16,5.32,.66,10.36,2.74,14.6,6.02,.28,.21,.55,.41,.83,.63,.2,.16,.34,.12,.48-.09,.36-.56,.74-1.11,1.11-1.66,2.82-4.23,5.83-8.33,9.02-12.3,2.02-2.5,4.14-4.9,6.36-7.22,3.42-3.6,7.16-6.88,11.18-9.79,4.23-3.1,8.84-5.63,13.72-7.53C84.68,.07,84.96,0,85.25,0Z"/></g></g></svg>