<svg xmlns="http://www.w3.org/2000/svg" xmlns:xlink="http://www.w3.org/1999/xlink" width="232.312" height="130" viewBox="0 0 232.312 130">
  <defs>
    <linearGradient id="linear-gradient" x1="-0.015" y1="0.217" x2="0.91" y2="0.541" gradientUnits="objectBoundingBox">
      <stop offset="0" stop-color="#44b6cf"/>
      <stop offset="0.392" stop-color="#2d8196"/>
      <stop offset="0.8" stop-color="#195062"/>
      <stop offset="1" stop-color="#113d4e"/>
    </linearGradient>
  </defs>
  <g id="Grupo_892" data-name="Grupo 892" transform="translate(-313.359 -116.01)">
    <path id="Trazado_899" data-name="Trazado 899" d="M504.109,179.747c.076.237-.08.4-.159.561-1.726,3.633-3.446,7.27-5.2,10.892a9.054,9.054,0,0,1-9.016,5.257,8.888,8.888,0,0,1-6.88-3.966c-1.591-2.262-3.183-4.525-4.752-6.8Q465.749,167.75,453.4,149.8a9.184,9.184,0,0,1,5.7-14.36,3.448,3.448,0,0,1,2.291.381c2.643,1.338,5.285,2.676,7.948,3.973a66.727,66.727,0,0,0,9.707,4.008,18.669,18.669,0,0,0,14-.768,56.655,56.655,0,0,0,7.772-4.291c3.421-2.17,6.762-4.46,10.083-6.779a5.076,5.076,0,0,1,3.776-.672c.041.214-.09.271-.177.346a112.579,112.579,0,0,0-16.3,17.878q-2.271,3.022-4.419,6.132c-.321.465-.335.471-.793.181a33.58,33.58,0,0,0-12.248-4.634,10.5,10.5,0,0,0-4.123-.066,5.14,5.14,0,0,0-3.7,7.661,8.631,8.631,0,0,0,1.626,2.2,41.059,41.059,0,0,1,5.725,7.443c1.984,3.07,3.774,6.259,5.7,9.362a14.242,14.242,0,0,0,2.217,2.862,10.854,10.854,0,0,0,15.335-.362C503.713,180.107,503.91,179.936,504.109,179.747Z" transform="translate(-62.33 -6.85)" fill="url(#linear-gradient)"/>
    <path id="Trazado_900" data-name="Trazado 900" d="M557.121,116.013a8.292,8.292,0,0,1-1.04,1.309,183.191,183.191,0,0,0-15.225,20.129c-3.084,4.769-6.018,9.629-8.885,14.531-3.327,5.689-6.612,11.4-10.012,17.05a7.077,7.077,0,0,1-3.833,3.318,6.532,6.532,0,0,1-6.869-1.445,9.5,9.5,0,0,1-1.673-2.158c-1.714-2.829-3.41-5.67-5.146-8.485a63.377,63.377,0,0,0-5-7.073c-.521-.632-1.13-1.174-1.692-1.764a6.249,6.249,0,0,1-1.064-1.417,1.046,1.046,0,0,1,.685-1.67,3.687,3.687,0,0,1,1.609-.164,29.8,29.8,0,0,1,14.6,6.018c.275.21.555.413.827.626.2.159.341.122.48-.092.363-.559.741-1.108,1.111-1.663q4.237-6.351,9.023-12.3,3.025-3.746,6.364-7.222a81.009,81.009,0,0,1,11.185-9.794,59.99,59.99,0,0,1,13.724-7.533A1.8,1.8,0,0,1,557.121,116.013Z" transform="translate(-82.519 0)" fill="#45b6cf"/>
    <path id="Trazado_901" data-name="Trazado 901" d="M329.844,298.954l8.982-33.132h-5.341l-7.368,25.418-7.368-25.418h-5.39l8.982,33.132Z" transform="translate(0 -67.507)" fill="#44b6cf"/>
    <path id="Trazado_902" data-name="Trazado 902" d="M364.065,271.318a2.937,2.937,0,1,1,0,4.154A2.955,2.955,0,0,1,364.065,271.318Zm-.3,29.622V279.875l4.747,3.753v17.313Z" transform="translate(-22.464 -69.599)" fill="#44b6cf"/>
    <path id="Trazado_903" data-name="Trazado 903" d="M387.708,309.059a12.384,12.384,0,0,1-5.143-1.138l-.742-.4v-4.6a11.149,11.149,0,0,0,5.885,1.582c1.929,0,2.868-.643,2.868-1.978,0-3.263-9-2.077-9-8.851,0-3.808,3.116-6.182,7.418-6.182a11.725,11.725,0,0,1,4.846.989l.593.346v4.4a11.2,11.2,0,0,0-5.44-1.187q-2.671,0-2.671,1.632c0,1.038,1.384,1.731,3.165,2.374,2.572.741,5.885,2.323,5.835,6.477C395.323,306.537,392.307,309.059,387.708,309.059Z" transform="translate(-30.739 -77.274)" fill="#44b6cf"/>
    <path id="Trazado_904" data-name="Trazado 904" d="M428.812,288l4.747,3.753v7.62c0,3.313-.89,5.836-2.67,7.467a9.408,9.408,0,0,1-12.66.05c-1.731-1.632-2.621-4.153-2.621-7.517V288l4.747,3.753v7.62c0,3.562,1.632,5.391,4.2,5.391s4.253-1.879,4.253-5.391Z" transform="translate(-46.074 -77.5)" fill="#44b6cf"/>
    <path id="Trazado_905" data-name="Trazado 905" d="M473.071,308.812v-1.681a7.532,7.532,0,0,1-.742.543,12.007,12.007,0,0,1-5.341,1.384,10.781,10.781,0,1,1,0-21.561,11.031,11.031,0,0,1,7.615,2.917,10.285,10.285,0,0,1,3.215,8.012v10.385Zm-6.082-4.3a6.233,6.233,0,1,0-6.083-6.231A6.022,6.022,0,0,0,466.989,304.509Z" transform="translate(-64.347 -77.274)" fill="#44b6cf"/>
    <path id="Trazado_906" data-name="Trazado 906" d="M503.846,298.954V265.821l4.747,3.753v29.38Z" transform="translate(-85.835 -67.506)" fill="#44b6cf"/>
    <path id="Trazado_907" data-name="Trazado 907" d="M540.091,270.833h-6.725l-6.881-4.945h23.6l6.881,4.945h-11.73V299.02h-5.143Z" transform="translate(-96.036 -67.536)" fill="#103d4e"/>
    <path id="Trazado_908" data-name="Trazado 908" d="M573.868,308.934V287.868l4.747,3.753v17.313Z" transform="translate(-117.388 -77.441)" fill="#103d4e"/>
    <path id="Trazado_909" data-name="Trazado 909" d="M607.047,288.525v4.55h-2.423c-4.7,0-7.417,2.225-7.417,5.983s2.719,5.984,7.417,5.984h2.423v4.55h-2.423c-3.857,0-6.873-.99-9-2.968a10.006,10.006,0,0,1-3.165-7.566,9.826,9.826,0,0,1,3.165-7.516c2.127-2.028,5.143-3.016,9-3.016Z" transform="translate(-125.764 -77.737)" fill="#103d4e"/>
    <path id="Trazado_910" data-name="Trazado 910" d="M643.591,299l-7.022-10.237V299h-4.747V265.864l4.747,3.753v17.412l6.33-9.1h5.587l-6.923,10.037L649.229,299Z" transform="translate(-143.502 -67.525)" fill="#103d4e"/>
    <path id="Trazado_911" data-name="Trazado 911" d="M683.706,300.69l-.006,0-.265.737a6.19,6.19,0,0,1-10.646.374l15.676-4.168c-.422-1.987-.863-6.269-5.469-8.831a10.147,10.147,0,0,0-7.858-.88,10.807,10.807,0,0,0-7.7,13.2,10.641,10.641,0,0,0,13.188,7.649,11.212,11.212,0,0,0,6.069-4.12,12.776,12.776,0,0,0,1.269-2.538c.225-.618.363-1.069.456-1.426Zm-11.961-3.011a5.7,5.7,0,0,1,4.549-5.4c2.819-.75,5.609.5,6.538,2.457Z" transform="translate(-159.378 -77.281)" fill="#103d4e"/>
    <path id="Trazado_912" data-name="Trazado 912" d="M722.6,296.594l3.128,4.55H721.61c-4.8,0-8.16-2.374-8.16-8.457V270.681l4.7,3.753v5.643H722.2l3.753,4.55h-7.808v8.06c0,2.622,1.137,3.907,3.462,3.907Z" transform="translate(-180.285 -69.696)" fill="#103d4e"/>
    <g id="Grupo_891" data-name="Grupo 891" transform="translate(343.46 236.833)">
      <path id="Trazado_913" data-name="Trazado 913" d="M373.529,340.176h-2.448v6.487h-.511v-6.487h-2.422v-.511h5.381Z" transform="translate(-368.148 -337.614)" fill="#8b8989"/>
      <path id="Trazado_914" data-name="Trazado 914" d="M383.5,346.791a3.793,3.793,0,0,1-1.07-.131,2.254,2.254,0,0,1-.738-.354,1.743,1.743,0,0,1-.466-.524,2.623,2.623,0,0,1-.263-.639,3.634,3.634,0,0,1-.112-.7q-.022-.364-.023-.709v-4.065h.511v4.046a4.825,4.825,0,0,0,.144,1.3,1.791,1.791,0,0,0,.421.783,1.432,1.432,0,0,0,.677.383,3.693,3.693,0,0,0,.917.1,3.791,3.791,0,0,0,.93-.1,1.382,1.382,0,0,0,.678-.386,1.843,1.843,0,0,0,.412-.783,4.917,4.917,0,0,0,.141-1.3v-4.046h.511v4.065a6.186,6.186,0,0,1-.121,1.291,2.38,2.38,0,0,1-.421.962,1.891,1.891,0,0,1-.818.6A3.552,3.552,0,0,1,383.5,346.791Z" transform="translate(-373.863 -337.614)" fill="#8b8989"/>
      <path id="Trazado_915" data-name="Trazado 915" d="M408.257,346.687a3.458,3.458,0,0,1-1.365-.262,3.053,3.053,0,0,1-1.058-.738,3.294,3.294,0,0,1-.681-1.15,4.447,4.447,0,0,1-.24-1.5,4.336,4.336,0,0,1,.243-1.5,3.291,3.291,0,0,1,.681-1.134,2.97,2.97,0,0,1,1.045-.722,3.464,3.464,0,0,1,1.342-.252,3.869,3.869,0,0,1,1.074.143,3.091,3.091,0,0,1,.888.409,2.461,2.461,0,0,1,.646.636,2.272,2.272,0,0,1,.352.825h-.55a1.369,1.369,0,0,0-.246-.578,1.881,1.881,0,0,0-.508-.476,2.707,2.707,0,0,0-.729-.326,3.254,3.254,0,0,0-.914-.121,3.1,3.1,0,0,0-1.125.2,2.353,2.353,0,0,0-.879.591,2.739,2.739,0,0,0-.572.971,4.434,4.434,0,0,0,0,2.665,2.821,2.821,0,0,0,.572.987,2.386,2.386,0,0,0,.882.61,3,3,0,0,0,1.134.208,3.22,3.22,0,0,0,1.508-.332,3.155,3.155,0,0,0,1.081-.92v-1.259h-1.931v-.511h2.441v3.406h-.294l-.224-.933a2.632,2.632,0,0,1-.537.5,2.97,2.97,0,0,1-.624.326,3.48,3.48,0,0,1-.687.182A4.574,4.574,0,0,1,408.257,346.687Z" transform="translate(-384.716 -337.509)" fill="#8b8989"/>
      <path id="Trazado_916" data-name="Trazado 916" d="M425.281,346.663h-5.055v-7h4.883v.511h-4.372v2.588h4.1v.511h-4.1v2.876h4.544Z" transform="translate(-391.615 -337.614)" fill="#8b8989"/>
      <path id="Trazado_917" data-name="Trazado 917" d="M435.164,346.687a4.579,4.579,0,0,1-1.24-.15,2.611,2.611,0,0,1-.892-.428,1.874,1.874,0,0,1-.553-.671,2.344,2.344,0,0,1-.224-.885h.5a1.952,1.952,0,0,0,.288.786,1.633,1.633,0,0,0,.521.5,2.162,2.162,0,0,0,.707.262,4.438,4.438,0,0,0,.843.076,3.293,3.293,0,0,0,.841-.1,1.952,1.952,0,0,0,.639-.287,1.305,1.305,0,0,0,.406-.454,1.26,1.26,0,0,0,.141-.6,1.3,1.3,0,0,0-.121-.591,1.08,1.08,0,0,0-.409-.419,3.176,3.176,0,0,0-.758-.32q-.47-.14-1.166-.287a6.407,6.407,0,0,1-.988-.294,2.586,2.586,0,0,1-.68-.387,1.387,1.387,0,0,1-.4-.5,1.6,1.6,0,0,1-.127-.661,1.62,1.62,0,0,1,.172-.748,1.7,1.7,0,0,1,.489-.581,2.346,2.346,0,0,1,.76-.378,3.379,3.379,0,0,1,.981-.134,3.645,3.645,0,0,1,.985.125,2.515,2.515,0,0,1,.783.361,1.9,1.9,0,0,1,.808,1.342h-.492a1.688,1.688,0,0,0-.23-.524,1.538,1.538,0,0,0-.412-.419,2,2,0,0,0-.6-.275,2.915,2.915,0,0,0-.8-.1,2.433,2.433,0,0,0-1.422.345,1.1,1.1,0,0,0-.483.946,1.194,1.194,0,0,0,.09.48.942.942,0,0,0,.3.368,2.079,2.079,0,0,0,.565.287,6.849,6.849,0,0,0,.876.233q.307.063.633.134c.217.047.429.1.636.166a3.84,3.84,0,0,1,.591.236,1.9,1.9,0,0,1,.489.345,1.549,1.549,0,0,1,.332.489,1.672,1.672,0,0,1,.125.674,1.8,1.8,0,0,1-.189.821,1.953,1.953,0,0,1-.524.646,2.466,2.466,0,0,1-.8.422A3.253,3.253,0,0,1,435.164,346.687Z" transform="translate(-397.036 -337.509)" fill="#8b8989"/>
      <path id="Trazado_918" data-name="Trazado 918" d="M449.878,340.176H447.43v6.487h-.511v-6.487H444.5v-.511h5.381Z" transform="translate(-402.552 -337.614)" fill="#8b8989"/>
      <path id="Trazado_919" data-name="Trazado 919" d="M458.086,346.663h-.511v-7h.511Z" transform="translate(-408.445 -337.614)" fill="#8b8989"/>
      <path id="Trazado_920" data-name="Trazado 920" d="M465.476,337.855a3.377,3.377,0,0,1,1.323.255,2.989,2.989,0,0,1,1.045.728,3.391,3.391,0,0,1,.684,1.138,4.252,4.252,0,0,1,.246,1.483,4.323,4.323,0,0,1-.243,1.482,3.414,3.414,0,0,1-.681,1.154,3.038,3.038,0,0,1-1.042.748,3.486,3.486,0,0,1-2.668,0,3.05,3.05,0,0,1-1.045-.744,3.382,3.382,0,0,1-.681-1.15,4.344,4.344,0,0,1-.243-1.489,4.274,4.274,0,0,1,.246-1.489,3.324,3.324,0,0,1,.687-1.135,3.04,3.04,0,0,1,1.045-.725A3.369,3.369,0,0,1,465.476,337.855Zm-.007,6.742a2.905,2.905,0,0,0,1.109-.208,2.429,2.429,0,0,0,.878-.61,2.8,2.8,0,0,0,.575-.987,4.028,4.028,0,0,0,.2-1.332,3.908,3.908,0,0,0-.208-1.329,2.777,2.777,0,0,0-.575-.968,2.4,2.4,0,0,0-.869-.594,2.909,2.909,0,0,0-1.1-.2,2.963,2.963,0,0,0-1.115.2,2.446,2.446,0,0,0-.878.6,2.753,2.753,0,0,0-.578.969,3.884,3.884,0,0,0-.208,1.323,4.03,4.03,0,0,0,.2,1.332,2.822,2.822,0,0,0,.572.987,2.4,2.4,0,0,0,.876.61A2.9,2.9,0,0,0,465.469,344.6Zm.748-8.666-.933,1.189h-.569l.569-1.189Z" transform="translate(-410.516 -335.931)" fill="#8b8989"/>
      <path id="Trazado_921" data-name="Trazado 921" d="M482.818,346.663h-.671l-4.269-6.391v6.391h-.512v-7h.7l4.237,6.378v-6.378h.511Z" transform="translate(-417.363 -337.614)" fill="#8b8989"/>
      <path id="Trazado_922" data-name="Trazado 922" d="M507.11,346.658H506.5l-.856-2.25H502.2q-.185.531-.4,1.122t-.415,1.128h-.543q.345-.907.681-1.777l.667-1.728.668-1.729q.335-.869.68-1.77h.722Zm-1.617-2.652-1.623-3.892-1.54,3.892Z" transform="translate(-427.938 -337.609)" fill="#8b8989"/>
      <path id="Trazado_923" data-name="Trazado 923" d="M528.2,346.687a4.584,4.584,0,0,1-1.24-.15,2.613,2.613,0,0,1-.891-.428,1.875,1.875,0,0,1-.553-.671,2.355,2.355,0,0,1-.224-.885h.5a1.943,1.943,0,0,0,.288.786,1.627,1.627,0,0,0,.521.5,2.163,2.163,0,0,0,.706.262,4.45,4.45,0,0,0,.844.076,3.293,3.293,0,0,0,.841-.1,1.956,1.956,0,0,0,.639-.287,1.3,1.3,0,0,0,.405-.454,1.255,1.255,0,0,0,.141-.6,1.3,1.3,0,0,0-.121-.591,1.075,1.075,0,0,0-.409-.419,3.186,3.186,0,0,0-.758-.32q-.47-.14-1.166-.287a6.4,6.4,0,0,1-.988-.294,2.6,2.6,0,0,1-.681-.387,1.391,1.391,0,0,1-.4-.5,1.6,1.6,0,0,1-.128-.661,1.621,1.621,0,0,1,.173-.748,1.7,1.7,0,0,1,.489-.581,2.347,2.347,0,0,1,.76-.378,3.376,3.376,0,0,1,.981-.134,3.645,3.645,0,0,1,.984.125,2.515,2.515,0,0,1,.783.361,1.9,1.9,0,0,1,.808,1.342h-.492a1.7,1.7,0,0,0-.23-.524,1.538,1.538,0,0,0-.412-.419,2.006,2.006,0,0,0-.6-.275,2.918,2.918,0,0,0-.8-.1,2.437,2.437,0,0,0-1.422.345,1.1,1.1,0,0,0-.482.946,1.187,1.187,0,0,0,.09.48.942.942,0,0,0,.3.368,2.085,2.085,0,0,0,.566.287,6.842,6.842,0,0,0,.876.233q.307.063.632.134c.218.047.43.1.636.166a3.864,3.864,0,0,1,.591.236,1.9,1.9,0,0,1,.489.345,1.549,1.549,0,0,1,.332.489,1.672,1.672,0,0,1,.125.674,1.8,1.8,0,0,1-.189.821,1.952,1.952,0,0,1-.524.646,2.468,2.468,0,0,1-.8.422A3.252,3.252,0,0,1,528.2,346.687Z" transform="translate(-438.958 -337.509)" fill="#8b8989"/>
      <path id="Trazado_924" data-name="Trazado 924" d="M541.243,339.433a3.378,3.378,0,0,1,1.323.255,2.985,2.985,0,0,1,1.045.728,3.39,3.39,0,0,1,.684,1.138,4.252,4.252,0,0,1,.246,1.483,4.322,4.322,0,0,1-.243,1.482,3.413,3.413,0,0,1-.681,1.154,3.035,3.035,0,0,1-1.042.748,3.486,3.486,0,0,1-2.668,0,3.049,3.049,0,0,1-1.045-.744,3.384,3.384,0,0,1-.681-1.15,4.346,4.346,0,0,1-.243-1.489,4.274,4.274,0,0,1,.246-1.489,3.325,3.325,0,0,1,.687-1.135,3.041,3.041,0,0,1,1.045-.725A3.369,3.369,0,0,1,541.243,339.433Zm-.007,6.742a2.9,2.9,0,0,0,1.109-.208,2.429,2.429,0,0,0,.879-.61,2.793,2.793,0,0,0,.575-.987,4.028,4.028,0,0,0,.2-1.332,3.907,3.907,0,0,0-.208-1.33,2.776,2.776,0,0,0-.575-.968,2.4,2.4,0,0,0-.869-.594,2.91,2.91,0,0,0-1.1-.2,2.962,2.962,0,0,0-1.115.2,2.446,2.446,0,0,0-.878.6,2.753,2.753,0,0,0-.579.969,3.884,3.884,0,0,0-.208,1.323,4.027,4.027,0,0,0,.2,1.332,2.821,2.821,0,0,0,.572.987,2.4,2.4,0,0,0,.876.61A2.9,2.9,0,0,0,541.236,346.175Z" transform="translate(-444.657 -337.509)" fill="#8b8989"/>
      <path id="Trazado_925" data-name="Trazado 925" d="M557.4,346.663h-4.122v-7h.511v6.487H557.4Z" transform="translate(-451.567 -337.614)" fill="#8b8989"/>
      <path id="Trazado_926" data-name="Trazado 926" d="M566.572,339.433a3.376,3.376,0,0,1,1.323.255,2.979,2.979,0,0,1,1.045.728,3.388,3.388,0,0,1,.684,1.138,4.253,4.253,0,0,1,.246,1.483,4.322,4.322,0,0,1-.243,1.482,3.421,3.421,0,0,1-.68,1.154,3.046,3.046,0,0,1-1.042.748,3.487,3.487,0,0,1-2.668,0,3.048,3.048,0,0,1-1.045-.744,3.4,3.4,0,0,1-.681-1.15,4.344,4.344,0,0,1-.243-1.489,4.261,4.261,0,0,1,.246-1.489,3.316,3.316,0,0,1,.687-1.135,3.042,3.042,0,0,1,1.045-.725A3.366,3.366,0,0,1,566.572,339.433Zm-.006,6.742a2.9,2.9,0,0,0,1.109-.208,2.419,2.419,0,0,0,.878-.61,2.8,2.8,0,0,0,.575-.987,4.03,4.03,0,0,0,.2-1.332,3.894,3.894,0,0,0-.208-1.33,2.777,2.777,0,0,0-.575-.968,2.4,2.4,0,0,0-.87-.594,2.9,2.9,0,0,0-1.1-.2,2.961,2.961,0,0,0-1.115.2,2.449,2.449,0,0,0-.879.6,2.753,2.753,0,0,0-.578.969,3.883,3.883,0,0,0-.208,1.323,4.014,4.014,0,0,0,.2,1.332,2.821,2.821,0,0,0,.571.987,2.4,2.4,0,0,0,.876.61A2.9,2.9,0,0,0,566.566,346.175Z" transform="translate(-456.071 -337.509)" fill="#8b8989"/>
      <path id="Trazado_927" data-name="Trazado 927" d="M592.3,346.791a3.794,3.794,0,0,1-1.07-.131,2.26,2.26,0,0,1-.738-.354,1.744,1.744,0,0,1-.466-.524,2.6,2.6,0,0,1-.262-.639,3.592,3.592,0,0,1-.112-.7q-.022-.364-.022-.709v-4.065h.511v4.046a4.826,4.826,0,0,0,.144,1.3,1.787,1.787,0,0,0,.422.783,1.427,1.427,0,0,0,.677.383,3.685,3.685,0,0,0,.917.1,3.8,3.8,0,0,0,.93-.1,1.384,1.384,0,0,0,.677-.386,1.838,1.838,0,0,0,.412-.783,4.9,4.9,0,0,0,.141-1.3v-4.046h.511v4.065a6.186,6.186,0,0,1-.122,1.291,2.38,2.38,0,0,1-.421.962,1.891,1.891,0,0,1-.818.6A3.55,3.55,0,0,1,592.3,346.791Z" transform="translate(-467.951 -337.614)" fill="#8b8989"/>
      <path id="Trazado_928" data-name="Trazado 928" d="M608.627,346.663h-.671l-4.269-6.391v6.391h-.512v-7h.7l4.237,6.378v-6.378h.511Z" transform="translate(-474.053 -337.614)" fill="#8b8989"/>
      <path id="Trazado_929" data-name="Trazado 929" d="M632.8,341.433a1.611,1.611,0,0,0-.262-.585,1.951,1.951,0,0,0-.479-.473,2.349,2.349,0,0,0-.661-.317,2.711,2.711,0,0,0-.8-.115,2.95,2.95,0,0,0-1.1.2,2.243,2.243,0,0,0-.844.585,2.654,2.654,0,0,0-.537.965,4.344,4.344,0,0,0-.188,1.345,4.407,4.407,0,0,0,.188,1.352,2.742,2.742,0,0,0,.537.981,2.263,2.263,0,0,0,.837.6,2.8,2.8,0,0,0,1.09.2,2.578,2.578,0,0,0,1.5-.405,1.752,1.752,0,0,0,.729-1.186h.531a2.446,2.446,0,0,1-.313.892,2.311,2.311,0,0,1-.594.661,2.626,2.626,0,0,1-.825.409,3.477,3.477,0,0,1-1.01.141,3.292,3.292,0,0,1-1.333-.259,2.834,2.834,0,0,1-1.007-.732,3.284,3.284,0,0,1-.639-1.147,4.789,4.789,0,0,1-.224-1.511,4.683,4.683,0,0,1,.224-1.5,3.232,3.232,0,0,1,.642-1.134,2.821,2.821,0,0,1,1.01-.722,3.35,3.35,0,0,1,1.326-.252,3.129,3.129,0,0,1,.962.147,2.9,2.9,0,0,1,.821.413,2.548,2.548,0,0,1,.613.632,2.3,2.3,0,0,1,.346.809Z" transform="translate(-484.964 -337.509)" fill="#8b8989"/>
      <path id="Trazado_930" data-name="Trazado 930" d="M645.8,346.663h-4.122v-7h.511v6.487H645.8Z" transform="translate(-491.402 -337.614)" fill="#8b8989"/>
      <path id="Trazado_931" data-name="Trazado 931" d="M653.2,346.663h-.511v-7h.511Z" transform="translate(-496.367 -337.614)" fill="#8b8989"/>
      <path id="Trazado_932" data-name="Trazado 932" d="M662.728,341.433a1.634,1.634,0,0,0-.262-.585,1.944,1.944,0,0,0-.48-.473,2.341,2.341,0,0,0-.661-.317,2.7,2.7,0,0,0-.8-.115,2.95,2.95,0,0,0-1.1.2,2.243,2.243,0,0,0-.844.585,2.646,2.646,0,0,0-.537.965,4.344,4.344,0,0,0-.188,1.345,4.407,4.407,0,0,0,.188,1.352,2.734,2.734,0,0,0,.537.981,2.263,2.263,0,0,0,.837.6,2.8,2.8,0,0,0,1.09.2,2.578,2.578,0,0,0,1.5-.405,1.752,1.752,0,0,0,.729-1.186h.53a2.425,2.425,0,0,1-.313.892,2.3,2.3,0,0,1-.594.661,2.62,2.62,0,0,1-.824.409,3.477,3.477,0,0,1-1.01.141,3.29,3.29,0,0,1-1.333-.259,2.834,2.834,0,0,1-1.007-.732,3.276,3.276,0,0,1-.639-1.147,4.775,4.775,0,0,1-.224-1.511,4.67,4.67,0,0,1,.224-1.5,3.224,3.224,0,0,1,.642-1.134,2.816,2.816,0,0,1,1.01-.722,3.348,3.348,0,0,1,1.326-.252,3.124,3.124,0,0,1,.961.147,2.889,2.889,0,0,1,.821.413,2.561,2.561,0,0,1,.614.632,2.288,2.288,0,0,1,.345.809Z" transform="translate(-498.449 -337.509)" fill="#8b8989"/>
      <path id="Trazado_933" data-name="Trazado 933" d="M676.969,346.663h-.684l-2.793-3.822-1.425,1.381v2.441h-.511v-7h.511v3.847l3.969-3.847h.71l-2.883,2.8Z" transform="translate(-504.866 -337.614)" fill="#8b8989"/>
    </g>
  </g>
</svg>
